<?xml version="1.0" encoding="utf-8"?>
<!-- Generator: Adobe Illustrator 24.0.1, SVG Export Plug-In . SVG Version: 6.00 Build 0)  -->
<svg version="1.1" id="Laag_1" xmlns="http://www.w3.org/2000/svg" xmlns:xlink="http://www.w3.org/1999/xlink" x="0px" y="0px"
	 viewBox="0 0 1920 833" style="enable-background:new 0 0 1920 833;" xml:space="preserve">
<style type="text/css">
	.st0{fill:#46CE2E;}
	.st1{fill:#FFFFFF;}
</style>
<path class="st0" d="M6,497.99c0,0,225.93-80.69,279.31-129.1c0,0,325.24-532.55,823.03-310.34S1848.21,350.27,1914,335.37
	c0,0-265.98,223.53-396.62,339.52C1329.31,841.85,922.14,876.61,744,751.85C462.67,554.82,364.14,440.27,292.14,450.2
	c0,0-139.03,32.28-217.24,76.97C74.9,527.16,31.45,501.1,6,497.99z"/>
<path class="st1" d="M441.1,373.23c0,0,238.34-217.24,550.55-117.31c323.08,103.41,728.69,130.34,765.93,119.17
	c0,0-201.72,62.69-587.79-18c0,0,214.14,191.79,258.83,191.79c0,0,1.86,29.17-200.48-101.17S951.31,251.58,741.52,295.03
	c0,0,182.48,203.59,220.97,217.24c0,0-64.55-32.28-124.14-88.14c-59.59-55.86-165.1-111.72-165.1-111.72S576.41,309.92,441.1,373.23
	z"/>
</svg>
