<?xml version="1.0" standalone="no"?>
<!DOCTYPE svg PUBLIC "-//W3C//DTD SVG 20010904//EN"
 "http://www.w3.org/TR/2001/REC-SVG-20010904/DTD/svg10.dtd">
<svg version="1.0" xmlns="http://www.w3.org/2000/svg"
 width="5002.000000pt" height="5002.000000pt" viewBox="0 0 5002.000000 5002.000000"
 preserveAspectRatio="xMidYMid meet">
<metadata>
Created by potrace 1.11, written by Peter Selinger 2001-2013
</metadata>
<g transform="translate(0.000000,5002.000000) scale(0.100000,-0.100000)"
fill="#000000" stroke="none">
<path d="M27245 47512 c-11 -20 -76 -94 -145 -163 -225 -227 -537 -453 -952
-687 -126 -71 -491 -255 -598 -301 -30 -13 -73 -32 -95 -41 -22 -10 -76 -32
-120 -50 -44 -18 -93 -38 -110 -45 -221 -95 -836 -282 -1090 -331 -152 -29
-341 -72 -485 -110 -74 -20 -142 -37 -150 -39 -29 -7 -216 -63 -295 -89 -46
-14 -93 -23 -110 -21 -71 12 -93 15 -150 20 -33 4 -67 8 -75 10 -8 3 -42 7
-74 11 -33 3 -69 8 -80 10 -12 2 -43 6 -71 9 -27 3 -63 7 -80 9 -16 2 -59 7
-95 11 -36 3 -76 8 -90 10 -14 2 -57 7 -96 10 -39 3 -81 7 -93 10 -12 2 -60 7
-107 10 -46 3 -93 8 -104 10 -10 2 -56 6 -102 10 -46 3 -99 7 -118 9 -43 5
-188 17 -255 21 -27 2 -95 7 -150 11 -55 3 -127 8 -160 9 -33 2 -112 6 -175
10 -347 21 -687 29 -1235 29 -479 0 -813 -6 -1045 -19 -36 -2 -123 -6 -195
-10 -71 -3 -152 -8 -180 -10 -27 -3 -95 -7 -150 -10 -55 -4 -116 -8 -135 -10
-19 -2 -73 -6 -120 -9 -47 -4 -105 -9 -130 -11 -25 -2 -79 -7 -120 -10 -41 -3
-91 -8 -110 -10 -19 -2 -64 -7 -100 -10 -36 -3 -76 -8 -90 -10 -14 -2 -54 -7
-90 -10 -36 -3 -81 -8 -100 -10 -19 -3 -75 -9 -125 -15 -49 -6 -105 -13 -122
-16 -79 -10 -101 -13 -158 -19 -33 -4 -67 -8 -75 -11 -8 -2 -38 -6 -65 -9
-161 -19 -1010 -160 -1074 -179 -9 -3 -29 -8 -46 -10 -16 -3 -52 -10 -80 -16
-27 -6 -63 -13 -80 -16 -28 -5 -133 -28 -180 -39 -11 -3 -45 -10 -75 -17 -30
-6 -57 -12 -60 -13 -3 -1 -21 -5 -40 -9 -19 -4 -118 -28 -220 -53 -102 -25
-189 -46 -195 -48 -262 -59 -944 -262 -1355 -402 -135 -46 -252 -86 -260 -88
-44 -11 -535 -197 -735 -277 -149 -60 -541 -226 -613 -259 -35 -16 -65 -29
-67 -29 -2 0 -51 -22 -110 -50 -59 -27 -108 -50 -110 -50 -24 0 -885 -431
-1130 -565 -808 -443 -1338 -773 -2108 -1313 -274 -192 -1034 -774 -1087 -832
-3 -3 -41 -34 -85 -70 -77 -62 -463 -392 -516 -441 -14 -13 -57 -52 -95 -86
-39 -34 -84 -74 -101 -90 -17 -15 -55 -50 -84 -77 -425 -385 -1089 -1063
-1455 -1486 -21 -25 -44 -49 -50 -55 -11 -11 -214 -248 -299 -350 -27 -33 -52
-62 -55 -65 -9 -9 -122 -149 -234 -290 -59 -74 -112 -142 -119 -150 -120 -146
-525 -699 -692 -945 -60 -88 -113 -164 -118 -170 -20 -24 -242 -369 -367 -570
-339 -545 -601 -1016 -884 -1590 -79 -159 -158 -321 -176 -360 -18 -38 -48
-104 -67 -145 -33 -69 -54 -118 -58 -130 -1 -3 -13 -30 -26 -60 -14 -30 -63
-143 -108 -250 -46 -107 -89 -208 -96 -225 -110 -253 -463 -1217 -490 -1335
-1 -8 -12 -42 -23 -75 -19 -56 -48 -149 -109 -355 -45 -152 -84 -291 -137
-495 -48 -181 -60 -228 -71 -275 -2 -8 -17 -70 -34 -137 -17 -67 -32 -132 -35
-145 -3 -13 -27 -126 -55 -253 -27 -126 -52 -241 -55 -255 -31 -167 -68 -361
-71 -385 -3 -16 -7 -41 -10 -55 -3 -14 -7 -41 -10 -60 -3 -19 -8 -42 -10 -50
-2 -8 -7 -35 -10 -60 -3 -25 -8 -56 -10 -70 -8 -43 -13 -79 -40 -260 -33 -227
-32 -220 -45 -325 -6 -49 -13 -101 -15 -115 -2 -14 -6 -54 -10 -90 -4 -36 -8
-76 -10 -90 -2 -14 -6 -52 -9 -85 -4 -33 -8 -80 -11 -105 -23 -222 -39 -410
-50 -585 -2 -44 -7 -118 -10 -165 -40 -634 -40 -1573 0 -2200 3 -47 8 -116 10
-155 5 -79 13 -184 20 -265 3 -30 7 -84 11 -120 3 -36 7 -83 9 -105 2 -22 7
-74 10 -115 4 -41 8 -86 10 -100 5 -41 14 -122 20 -180 3 -30 10 -86 15 -125
5 -38 12 -92 15 -120 3 -27 8 -66 10 -85 3 -19 7 -54 10 -78 3 -24 7 -53 10
-65 2 -12 7 -42 10 -67 3 -25 7 -56 9 -70 3 -14 7 -47 11 -75 3 -27 8 -59 11
-70 2 -11 6 -36 9 -55 10 -77 26 -176 30 -190 3 -8 7 -32 9 -53 5 -33 48 -283
61 -347 3 -14 9 -50 15 -80 6 -30 12 -66 15 -80 3 -14 12 -59 20 -100 8 -41
24 -120 35 -175 12 -55 24 -111 26 -125 12 -61 119 -522 160 -685 25 -99 47
-187 49 -195 3 -16 55 -207 86 -320 166 -608 429 -1407 673 -2050 20 -52 40
-104 45 -115 5 -11 42 -103 82 -205 74 -189 227 -561 272 -660 13 -30 37 -84
52 -120 26 -61 37 -85 95 -215 20 -44 127 -277 235 -510 41 -90 392 -793 434
-870 15 -27 62 -117 105 -200 43 -82 81 -154 85 -160 5 -5 31 -54 60 -107 100
-189 255 -461 425 -746 67 -111 126 -210 131 -220 101 -172 571 -894 587 -900
4 -2 8 -10 8 -17 0 -7 3 -15 8 -17 4 -1 21 -23 38 -48 25 -37 187 -265 329
-463 70 -97 421 -556 434 -567 3 -3 19 -22 34 -42 25 -34 139 -173 218 -267
16 -19 44 -53 62 -75 61 -75 172 -205 297 -346 41 -47 89 -100 105 -119 37
-41 54 -60 175 -192 287 -313 743 -768 1030 -1029 51 -47 103 -94 114 -105 12
-11 95 -85 186 -164 91 -79 181 -158 200 -175 19 -17 60 -51 90 -76 30 -25 57
-47 60 -51 3 -3 109 -89 235 -190 482 -387 991 -753 1523 -1095 168 -108 657
-404 667 -404 3 0 24 -11 46 -26 45 -28 40 -25 259 -147 545 -302 1220 -626
1790 -858 107 -44 204 -84 215 -89 66 -30 530 -204 530 -199 0 1 11 -3 24 -10
27 -15 365 -133 551 -193 69 -22 130 -45 137 -50 10 -8 16 -29 37 -133 3 -11
14 -60 26 -110 12 -49 24 -101 26 -115 3 -14 9 -41 15 -61 5 -21 13 -57 18
-80 5 -24 27 -125 50 -224 22 -99 59 -259 80 -356 45 -198 49 -209 65 -210 6
0 1816 -1 4023 -1 l4012 0 16 -57 c41 -140 132 -381 213 -561 9 -19 16 -37 17
-40 3 -13 138 -275 160 -310 14 -22 25 -42 25 -46 0 -3 36 -65 81 -137 44 -73
86 -141 92 -152 7 -11 14 -22 17 -25 3 -3 38 -54 79 -115 41 -60 77 -112 80
-115 4 -3 19 -23 35 -45 253 -347 651 -754 1026 -1049 190 -149 594 -422 699
-473 8 -3 58 -31 110 -61 222 -125 549 -277 747 -346 175 -61 429 -125 556
-140 26 -3 58 -8 70 -11 153 -34 808 -41 967 -10 11 2 48 6 83 9 36 3 118 15
184 26 65 12 130 23 144 25 51 9 227 47 280 60 30 8 66 16 80 19 29 6 128 34
255 71 574 168 1281 475 1910 828 50 27 110 61 135 75 325 182 889 540 1275
810 358 251 894 656 1240 937 34 28 81 66 105 85 37 30 92 75 319 265 13 11
45 38 71 60 26 22 73 63 105 90 133 113 522 456 585 515 9 8 58 53 110 100 52
47 123 113 159 146 37 34 86 81 111 104 303 283 935 907 1139 1125 47 50 114
122 150 160 73 77 102 113 84 102 -47 -29 -477 -30 -622 -2 -11 2 -41 6 -68
10 -437 59 -946 195 -1548 413 -158 57 -384 151 -660 272 -77 34 -521 254
-602 299 -279 153 -517 296 -721 432 -72 49 -136 89 -141 89 -5 0 -11 4 -13 8
-1 5 -32 29 -68 54 -36 24 -112 78 -170 119 -150 107 -395 273 -537 363 -104
66 -122 82 -118 100 2 11 13 60 25 108 19 87 25 112 35 166 3 15 10 43 15 62
10 39 118 513 130 575 5 22 29 126 53 230 25 105 48 204 51 220 3 17 28 127
55 245 68 298 101 441 106 465 2 11 36 160 75 330 55 242 135 592 185 815 2 8
15 67 30 130 14 63 29 126 31 140 3 14 19 84 35 155 17 72 33 141 35 155 3 14
8 34 11 45 4 11 8 25 9 30 8 36 108 475 189 830 52 231 139 611 192 845 l97
425 515 0 515 0 58 235 c95 389 169 694 173 710 13 59 70 293 91 375 15 55 28
111 31 124 4 24 53 225 69 286 5 20 117 481 125 515 4 19 15 64 24 100 9 36
18 72 20 80 18 81 67 282 75 310 6 19 22 85 36 145 l25 110 62 59 c34 32 121
113 192 180 144 134 756 744 905 901 133 142 300 321 351 379 24 27 53 59 64
71 17 18 86 94 211 235 17 19 69 78 114 130 45 52 95 109 111 127 41 46 519
621 614 739 275 340 626 811 813 1089 26 39 50 72 53 75 11 9 273 412 359 550
45 74 93 151 105 170 187 294 558 986 735 1370 29 63 68 148 86 188 19 40 34
75 34 77 0 3 13 33 29 67 41 88 138 325 206 503 31 83 61 159 65 170 20 46
138 389 178 515 31 97 86 279 95 315 3 11 19 68 36 126 43 150 144 555 157
629 2 14 7 36 10 50 3 14 7 32 9 40 7 29 64 325 70 360 3 19 10 60 15 90 16
92 22 132 35 220 4 25 8 56 10 70 15 99 35 256 40 315 4 38 8 76 10 85 2 9 6
54 10 101 4 46 8 95 10 109 2 14 6 70 10 125 4 55 9 120 11 145 22 285 22
1038 -1 1370 -8 122 -17 229 -20 265 l-4 40 19 -40 c58 -120 207 -468 302
-705 38 -96 80 -200 94 -231 13 -31 24 -63 24 -71 0 -8 4 -18 9 -23 4 -6 54
-138 111 -295 56 -157 106 -294 110 -305 12 -28 180 -543 229 -700 85 -277
226 -786 280 -1010 12 -49 26 -104 31 -121 6 -16 14 -50 19 -75 4 -24 22 -103
39 -176 17 -72 34 -142 36 -155 3 -13 15 -66 26 -118 21 -95 68 -323 76 -370
3 -14 11 -56 19 -95 8 -38 17 -86 20 -105 5 -31 17 -97 20 -110 1 -3 5 -27 10
-55 4 -27 9 -59 11 -70 3 -11 7 -36 10 -55 2 -19 7 -46 10 -60 2 -14 6 -36 9
-49 2 -12 7 -43 10 -68 2 -24 7 -48 9 -51 2 -4 7 -36 10 -71 4 -36 9 -67 11
-71 2 -3 6 -31 9 -61 3 -29 7 -63 10 -74 4 -20 11 -71 22 -162 3 -27 7 -59 9
-73 14 -104 17 -130 30 -255 4 -33 8 -71 10 -85 2 -14 7 -59 10 -100 3 -41 8
-91 10 -110 13 -106 31 -375 36 -528 1 -34 4 -60 7 -57 6 5 7 23 17 200 4 66
8 152 11 190 48 862 48 1933 -1 2695 -3 41 -7 113 -10 160 -8 134 -15 240 -20
300 -2 30 -7 89 -10 130 -3 41 -8 86 -10 100 -2 14 -6 65 -10 113 -4 49 -8 98
-10 110 -2 12 -6 54 -10 92 -6 73 -13 139 -20 190 -2 17 -7 57 -10 90 -3 33
-8 71 -10 85 -3 14 -7 52 -10 85 -3 33 -8 71 -10 85 -3 14 -7 45 -10 70 -3 25
-7 54 -9 65 -2 11 -7 49 -12 85 -4 36 -8 67 -9 70 -1 3 -5 32 -9 65 -5 33 -10
69 -12 80 -3 11 -7 40 -10 65 -3 25 -7 52 -9 60 -2 8 -7 33 -10 55 -3 23 -7
50 -9 62 -3 12 -8 43 -12 70 -3 26 -8 57 -10 68 -4 19 -48 272 -60 340 -3 17
-20 107 -39 200 -19 94 -36 181 -39 195 -3 20 -54 255 -71 330 -68 308 -184
761 -269 1053 -18 65 -33 117 -31 115 2 -2 51 -75 110 -163 174 -259 323 -443
525 -646 237 -238 453 -385 800 -542 25 -11 47 -21 50 -22 3 -1 14 -5 25 -10
11 -4 36 -14 55 -22 158 -64 506 -161 670 -187 19 -3 46 -8 60 -10 71 -13 151
-26 199 -31 30 -4 62 -8 71 -10 16 -3 100 -11 210 -20 295 -24 899 -24 1120 0
19 2 76 7 125 10 50 3 108 8 130 11 51 5 131 14 170 19 17 2 57 6 90 10 33 3
67 8 75 10 8 2 44 7 80 10 36 4 83 10 105 15 22 5 69 11 105 15 36 4 67 8 70
10 3 2 24 6 46 9 22 4 49 8 59 10 11 2 40 7 65 11 25 4 54 9 65 11 11 2 47 9
80 15 33 6 114 21 180 34 66 13 131 26 145 29 14 2 55 11 91 20 37 8 78 17 90
20 103 20 529 123 714 173 72 19 135 36 140 37 22 5 104 28 165 47 36 10 74
21 85 24 70 14 553 164 855 265 558 186 1285 460 1684 636 l109 47 -69 19
c-37 11 -73 23 -79 27 -5 5 -21 11 -35 14 -54 14 -439 240 -525 309 -5 4 -62
47 -125 94 -321 241 -654 550 -986 915 -96 105 -309 366 -423 519 -157 210
-302 429 -489 740 -153 254 -385 597 -505 746 -233 290 -252 311 -456 514
-249 248 -489 437 -748 590 -51 30 -93 58 -93 61 0 3 53 46 118 95 149 113
119 90 322 255 142 115 337 280 396 334 6 5 56 51 110 100 283 258 656 623
887 870 41 44 92 99 113 121 22 23 77 83 124 135 47 51 92 100 100 109 8 8 44
49 80 90 36 41 74 84 85 95 11 11 43 47 70 80 28 33 52 62 55 65 3 3 36 41 74
85 72 84 80 93 161 190 28 33 60 71 72 85 17 21 191 234 288 355 23 28 201
254 263 334 15 19 36 46 47 61 11 15 113 150 226 301 351 469 618 846 949
1344 187 281 252 380 432 665 82 129 298 488 298 494 0 3 -19 -3 -42 -13 -75
-32 -237 -72 -343 -86 -27 -3 -79 -10 -115 -15 -222 -31 -963 -35 -1180 -6
-14 2 -70 7 -125 11 -55 3 -102 8 -105 10 -3 1 -37 6 -76 9 -39 4 -80 8 -90
10 -20 4 -126 18 -159 21 -35 4 -109 15 -135 19 -14 3 -68 12 -120 20 -106 18
-106 18 -274 51 -67 13 -132 26 -146 28 -57 11 -264 60 -390 93 -74 19 -145
37 -157 39 -146 32 -856 265 -988 325 -34 16 -401 168 -605 251 -107 44 -204
84 -215 89 -20 9 -85 34 -275 103 -131 48 -449 153 -540 178 -405 113 -711
178 -1005 214 -27 4 -61 8 -75 10 -34 5 -145 16 -265 25 -104 8 -687 5 -740
-3 -16 -3 -70 -8 -120 -12 -49 -4 -92 -8 -95 -10 -3 -1 -35 -6 -72 -9 -37 -4
-77 -9 -90 -11 -13 -2 -77 -13 -143 -24 -66 -11 -131 -23 -145 -26 -14 -3 -38
-8 -55 -10 -207 -36 -649 -156 -978 -266 -647 -217 -1065 -404 -1462 -657 -66
-42 -264 -180 -275 -192 -3 -3 -30 -24 -60 -46 -209 -157 -467 -410 -645 -634
-33 -41 -62 -77 -65 -80 -12 -12 -109 -150 -121 -171 -6 -13 -15 -26 -19 -29
-27 -20 -215 -359 -283 -510 -65 -142 -164 -404 -182 -480 -3 -8 -11 -40 -20
-70 -38 -130 -73 -278 -90 -380 -3 -19 -8 -42 -10 -50 -3 -8 -7 -35 -10 -60
-3 -25 -7 -54 -9 -65 -2 -12 -7 -48 -11 -80 -4 -33 -8 -71 -11 -85 -19 -124
-27 -668 -11 -845 8 -97 16 -167 22 -201 2 -12 7 -48 11 -80 8 -65 2 -66 69
22 85 112 358 362 520 477 44 32 292 196 340 226 65 40 186 111 189 111 2 0
41 21 87 46 286 158 713 355 1104 508 94 37 179 71 190 76 11 4 54 20 95 35
41 15 84 30 95 35 11 5 49 19 85 30 36 12 74 26 85 31 33 14 398 134 560 184
284 88 596 176 940 265 27 7 280 67 315 75 8 2 47 11 85 20 39 9 86 18 105 21
19 3 38 8 42 10 6 4 27 8 138 30 14 3 90 18 170 34 170 34 190 38 250 46 25 3
48 8 51 10 4 2 27 6 50 9 24 3 67 10 94 15 28 5 68 12 90 15 23 3 50 7 61 9
12 2 45 7 74 11 29 4 61 8 70 10 17 3 35 5 205 25 50 6 108 13 130 15 51 7
123 13 255 22 206 15 738 7 769 -11 3 -2 26 -7 51 -10 25 -3 77 -15 115 -27
99 -29 136 -39 170 -45 17 -3 46 -9 65 -14 19 -5 60 -12 90 -15 30 -4 62 -9
71 -10 108 -20 664 -20 767 0 10 1 55 6 102 9 88 7 94 8 233 26 45 6 100 13
122 16 67 9 162 23 200 30 10 2 35 6 55 9 20 3 47 7 60 10 14 3 52 10 85 15
33 6 128 25 210 41 83 17 161 33 175 35 178 35 739 173 990 244 80 22 152 43
161 45 9 2 63 18 120 35 57 17 127 38 154 45 28 8 76 23 109 34 45 16 55 17
46 6 -7 -8 -16 -15 -20 -15 -3 0 -63 -32 -131 -71 -134 -77 -503 -259 -524
-259 -3 0 -24 -9 -48 -19 -45 -21 -262 -101 -287 -106 -8 -2 -35 -11 -60 -20
-37 -13 -294 -87 -350 -100 -202 -48 -475 -105 -580 -121 -14 -2 -34 -5 -45
-7 -29 -7 -111 -19 -205 -32 -25 -3 -56 -8 -70 -10 -54 -8 -107 -15 -160 -20
-30 -3 -66 -7 -80 -10 -26 -4 -104 -12 -200 -21 -30 -2 -75 -7 -100 -9 -25 -3
-72 -7 -105 -10 -33 -2 -91 -7 -130 -10 -142 -11 -351 -23 -515 -31 -249 -11
-343 -13 -693 -18 -333 -5 -554 -13 -607 -21 -14 -2 -63 -7 -110 -10 -47 -4
-87 -8 -90 -10 -3 -2 -34 -6 -70 -10 -36 -4 -73 -9 -83 -11 -10 -2 -74 -13
-142 -24 -68 -11 -132 -23 -142 -25 -10 -2 -74 -16 -143 -30 -69 -14 -132 -28
-140 -30 -457 -114 -872 -249 -1340 -435 -211 -83 -538 -226 -555 -241 -5 -5
-14 -9 -21 -9 -21 0 -516 -241 -784 -382 -230 -121 -376 -202 -392 -216 -10
-8 -18 -12 -18 -7 0 4 -6 3 -12 -3 -13 -11 -81 -50 -263 -152 -16 -9 -120 -71
-230 -137 -511 -307 -913 -568 -1348 -877 -284 -201 -322 -229 -368 -268 l-42
-34 49 -94 c110 -215 294 -487 492 -728 483 -591 1091 -1076 1787 -1427 l201
-101 -54 -89 c-51 -85 -122 -216 -122 -227 0 -3 30 3 68 14 72 20 77 21 167
36 108 19 177 24 349 27 176 2 218 -3 351 -45 39 -12 93 -28 120 -35 28 -8 75
-21 105 -29 95 -27 402 -95 460 -102 30 -3 58 -8 61 -10 3 -2 34 -6 70 -9 35
-4 70 -8 78 -11 8 -2 100 -7 205 -10 187 -6 195 -7 346 -49 331 -92 1018 -325
1195 -405 11 -5 110 -46 220 -91 587 -241 1115 -511 1482 -759 209 -140 317
-235 442 -388 104 -128 251 -265 381 -355 409 -283 896 -532 1510 -773 63 -25
124 -49 135 -54 11 -5 38 -16 60 -23 22 -8 103 -38 180 -66 77 -29 194 -71
260 -93 66 -22 125 -45 130 -50 6 -6 5 -7 -5 -4 -15 5 -78 13 -175 22 -27 3
-77 9 -110 15 -33 6 -73 13 -90 16 -60 9 -71 12 -160 31 -435 96 -941 310
-1495 632 -69 40 -134 78 -145 84 -115 63 -678 432 -909 595 -276 195 -372
255 -611 376 -175 88 -244 120 -417 190 -153 62 -533 191 -678 230 -52 15
-120 33 -150 41 -30 9 -62 17 -70 19 -8 2 -71 17 -140 34 -178 42 -337 77
-470 101 -63 11 -135 25 -160 30 -25 5 -63 12 -85 15 -22 3 -78 12 -125 19
-47 8 -107 17 -133 21 -27 4 -59 8 -70 11 -12 2 -40 6 -62 9 -22 2 -54 6 -70
9 -17 2 -73 10 -125 16 -52 6 -108 13 -125 15 -16 2 -57 7 -90 10 -33 3 -76 8
-95 10 -31 3 -77 8 -217 20 -24 2 -78 7 -120 10 -43 3 -96 8 -118 10 -22 2
-89 7 -150 10 -60 3 -146 8 -190 10 -267 15 -981 27 -1032 17 -18 -3 -23 -13
-29 -51 -4 -25 -8 -54 -10 -63 -25 -140 -24 -650 1 -826 6 -35 8 -40 -114 248
-196 465 -462 1027 -643 1359 -37 69 -68 126 -68 128 0 2 -20 38 -43 81 -24
42 -61 109 -82 147 -45 84 -168 297 -242 419 -29 48 -53 92 -53 97 0 5 -4 9
-10 9 -5 0 -10 4 -10 10 0 8 -65 117 -140 235 -8 13 -28 45 -44 72 -32 53
-306 467 -383 578 -132 191 -436 605 -598 815 -71 92 -257 323 -265 330 -3 3
-25 30 -50 60 -48 59 -261 312 -270 320 -3 3 -35 39 -72 82 -36 42 -79 91 -96
110 -17 18 -40 44 -52 58 -27 31 -179 196 -280 305 -128 136 -668 674 -804
800 -71 66 -142 132 -158 146 -143 133 -331 298 -528 464 -63 54 -126 107
-140 119 -14 12 -95 78 -180 146 -85 69 -157 127 -160 130 -5 6 -154 121 -224
175 -137 103 -308 232 -326 245 -12 8 -61 44 -110 80 -48 36 -96 71 -106 78
-11 7 -71 49 -134 94 -168 120 -568 386 -775 518 -181 115 -683 420 -691 420
-2 0 -32 17 -66 38 -35 21 -70 41 -78 45 -8 4 -33 18 -55 30 -45 27 -205 116
-280 157 -448 245 -990 515 -1450 721 -110 50 -213 97 -230 105 -116 55 -710
298 -975 398 -96 37 -191 73 -210 81 -64 26 -503 181 -661 234 l-97 32 4 42
c32 361 38 1627 9 2152 -2 44 -7 140 -10 213 -3 73 -8 151 -10 175 -2 23 -6
83 -10 132 -10 140 -13 177 -17 181 -2 2 -13 -13 -23 -34z m-643 -1199 c-56
-123 -141 -289 -189 -372 -53 -91 -189 -300 -202 -311 -3 -3 -33 -41 -66 -85
-69 -94 -221 -271 -315 -369 l-67 -69 -54 14 c-30 7 -56 14 -59 14 -3 1 -19 4
-36 8 l-31 8 74 77 c41 42 100 104 131 137 82 86 300 332 368 415 16 19 31 37
34 40 4 3 41 48 84 100 42 52 85 104 95 115 28 33 195 248 220 283 30 42 35
41 13 -5z m-6510 -3762 l26 -1 -14 -47 c-8 -26 -16 -57 -19 -68 -2 -11 -11
-54 -20 -95 -9 -41 -18 -88 -21 -105 -4 -32 -14 -97 -20 -130 -23 -124 -23
-604 1 -695 2 -8 6 -35 9 -60 21 -165 105 -485 162 -615 7 -16 33 -79 59 -140
120 -286 307 -581 532 -841 103 -118 133 -147 134 -127 4 75 20 212 34 283 8
42 47 184 69 250 178 551 564 1221 1155 2005 58 77 108 142 111 145 3 3 27 33
54 67 36 47 53 61 69 58 12 -2 47 -6 77 -9 101 -11 145 -17 210 -26 36 -5 92
-12 124 -16 89 -10 91 -10 87 -20 -2 -5 -38 -64 -80 -132 -42 -67 -83 -135
-92 -150 -138 -234 -174 -298 -281 -497 -69 -129 -297 -589 -358 -725 -29 -63
-63 -139 -76 -168 -40 -88 -180 -422 -224 -533 -22 -57 -45 -113 -50 -124 -11
-23 -116 -306 -162 -435 -80 -228 -137 -404 -132 -412 24 -39 435 -203 659
-263 176 -47 200 -53 230 -59 17 -3 82 -14 145 -26 63 -11 134 -23 158 -25 23
-3 55 -7 70 -9 94 -16 325 -30 492 -30 131 0 367 11 409 19 9 1 45 6 81 10 87
9 109 12 145 19 17 2 75 12 130 21 55 10 104 19 108 22 4 2 20 6 35 8 133 19
563 151 747 230 17 7 59 25 95 40 665 282 1183 853 1583 1746 61 137 173 426
222 577 9 28 19 52 22 52 10 0 492 -153 668 -212 309 -104 834 -291 920 -328
11 -4 137 -54 280 -110 244 -96 656 -269 808 -339 37 -17 70 -31 72 -31 3 0
57 -25 121 -55 64 -30 118 -55 120 -55 4 0 271 -127 339 -162 208 -106 1021
-686 1380 -983 27 -22 92 -76 144 -119 53 -44 105 -87 116 -97 11 -10 45 -39
75 -65 312 -267 692 -635 1010 -980 186 -200 497 -569 620 -734 14 -18 34 -45
46 -59 144 -177 625 -892 687 -1021 4 -8 16 -28 26 -45 20 -32 125 -218 184
-327 42 -76 227 -445 227 -452 0 -2 15 -37 34 -78 18 -40 50 -108 70 -151 20
-44 36 -84 36 -91 0 -7 4 -16 9 -22 5 -5 41 -92 81 -194 39 -102 75 -194 80
-205 61 -153 251 -749 275 -865 2 -8 8 -35 15 -60 7 -25 14 -56 17 -69 2 -14
6 -28 8 -31 4 -6 56 -234 71 -305 2 -11 11 -54 19 -95 13 -64 38 -200 59 -315
15 -85 41 -258 56 -375 6 -47 13 -101 15 -120 3 -19 7 -62 10 -95 3 -33 7 -76
10 -95 14 -117 29 -319 41 -595 13 -282 7 -877 -11 -1115 -2 -25 -6 -83 -10
-130 -9 -124 -15 -199 -20 -250 -2 -25 -7 -72 -10 -105 -3 -33 -10 -94 -15
-135 -5 -41 -12 -97 -15 -125 -13 -109 -22 -150 -32 -148 -6 1 -26 5 -45 8
-18 3 -49 10 -68 15 -19 5 -48 12 -65 14 -86 16 -205 36 -245 41 -25 3 -56 8
-70 10 -139 24 -521 23 -690 -1 -330 -47 -672 -147 -975 -284 -27 -13 -75 -34
-105 -48 -386 -174 -652 -352 -878 -586 -207 -215 -340 -425 -440 -693 -43
-115 -88 -282 -98 -363 -3 -24 -7 -47 -9 -51 -11 -16 -20 -183 -20 -349 1
-189 6 -255 31 -395 36 -198 30 -190 87 -106 63 92 211 240 339 338 302 234
674 442 1206 674 23 11 61 27 85 38 138 61 774 292 842 305 6 1 37 10 70 20
120 36 152 45 290 80 211 52 383 86 513 101 36 4 36 10 5 -105 -7 -30 -16 -68
-19 -85 -7 -39 -14 -45 -55 -51 -45 -7 -201 -42 -266 -61 -29 -8 -55 -14 -58
-14 -2 0 -70 -22 -150 -50 -660 -227 -1444 -688 -2189 -1288 -65 -53 -142
-114 -170 -136 -28 -21 -55 -44 -61 -51 -5 -6 -44 -40 -85 -75 -41 -35 -93
-80 -115 -101 -22 -21 -43 -38 -47 -38 -18 0 -5 -27 49 -104 268 -386 690
-723 1163 -931 88 -39 369 -139 420 -150 8 -2 62 -15 120 -29 58 -13 125 -28
150 -32 25 -4 75 -12 111 -18 l66 -11 -40 -85 c-310 -651 -616 -1218 -924
-1710 -36 -58 -71 -114 -77 -125 -72 -131 -685 -1009 -736 -1055 -4 -3 -19
-23 -35 -45 -16 -22 -41 -54 -55 -71 -14 -17 -38 -48 -55 -69 -39 -51 -308
-378 -344 -419 -199 -223 -309 -345 -371 -411 -179 -190 -618 -620 -740 -725
-14 -12 -41 -36 -60 -53 -19 -18 -55 -49 -80 -71 -25 -21 -72 -62 -104 -90
-32 -28 -68 -58 -80 -66 -18 -13 -598 -15 -4849 -15 -2656 0 -4832 2 -4836 5
-35 25 -105 153 -132 243 -25 81 -19 252 11 357 66 229 255 510 531 790 339
344 720 637 1399 1081 125 82 643 386 803 473 308 166 385 206 657 342 335
167 570 277 885 414 161 70 476 201 506 210 15 4 42 15 60 23 19 9 97 39 174
67 77 28 149 55 160 60 11 4 49 18 85 30 36 12 79 29 97 36 17 8 35 14 39 14
4 0 76 22 159 49 213 69 495 152 562 166 10 1 56 12 103 23 47 11 137 30 200
42 63 12 147 27 185 35 39 8 84 17 100 20 17 2 39 7 50 9 147 30 209 44 380
82 794 179 1572 426 2290 726 105 44 210 89 235 100 336 153 584 276 843 419
54 30 111 61 126 69 77 42 260 155 256 158 -3 3 -10 0 -17 -6 -19 -16 -356
-127 -489 -161 -100 -26 -422 -100 -499 -115 -14 -2 -108 -20 -210 -40 -183
-34 -678 -120 -810 -140 -38 -6 -220 -34 -260 -41 -14 -2 -43 -7 -65 -10 -22
-3 -51 -8 -65 -10 -14 -3 -41 -7 -60 -10 -19 -3 -60 -10 -90 -15 -30 -5 -73
-12 -95 -15 -22 -3 -51 -7 -65 -10 -32 -5 -89 -13 -137 -20 -21 -3 -60 -10
-88 -15 -27 -5 -68 -12 -90 -15 -22 -3 -83 -12 -135 -21 -52 -8 -111 -17 -130
-20 -19 -3 -62 -10 -95 -16 -33 -5 -73 -12 -90 -15 -16 -2 -95 -15 -175 -29
-80 -14 -158 -27 -175 -30 -16 -2 -79 -13 -140 -24 -60 -11 -121 -21 -135 -24
-27 -4 -180 -33 -220 -41 -21 -4 -114 -23 -210 -41 -14 -3 -45 -10 -70 -15
-25 -6 -56 -13 -70 -15 -14 -3 -43 -10 -65 -16 -22 -5 -47 -12 -55 -13 -285
-61 -1068 -318 -1588 -521 -62 -24 -115 -44 -118 -44 -3 0 -20 -6 -37 -14 -32
-15 -553 -224 -572 -230 -15 -4 -42 -15 -120 -48 -38 -17 -74 -31 -80 -32 -5
-1 -27 -10 -49 -19 -21 -9 -42 -17 -46 -17 -4 0 -20 -6 -36 -14 -43 -21 -377
-151 -539 -211 -55 -20 -109 -40 -120 -45 -71 -31 -505 -173 -570 -186 -5 -1
-37 -9 -70 -17 -305 -79 -534 -82 -670 -9 -78 42 -170 139 -205 215 -39 86
-42 103 -45 232 -2 127 23 269 80 455 32 102 125 354 161 435 7 17 40 91 73
165 136 310 416 870 691 1385 21 39 59 111 85 160 73 138 165 308 175 325 5 8
22 40 38 70 16 30 43 80 59 110 132 243 257 471 443 810 342 622 384 708 479
983 43 127 109 368 125 461 3 16 10 52 16 80 60 299 71 839 25 1181 -3 22 -8
58 -11 80 -2 22 -7 51 -9 65 -3 14 -7 41 -10 60 -44 281 -120 583 -227 904
-61 185 -184 506 -238 623 -17 35 -30 66 -30 68 0 20 -250 526 -343 697 -113
204 -138 250 -164 290 -12 21 -23 40 -23 42 0 4 -133 224 -245 406 -33 52
-145 224 -251 383 -105 158 -190 287 -187 287 2 0 45 -20 96 -44 50 -24 126
-58 167 -76 41 -17 98 -42 125 -54 28 -13 109 -47 180 -76 72 -29 144 -58 160
-65 75 -32 385 -145 397 -145 8 0 18 -3 21 -6 3 -4 41 -19 84 -33 l78 -27 -42
84 c-35 71 -92 249 -107 332 -5 30 -24 137 -30 167 -3 12 -8 53 -11 90 -4 37
-9 70 -10 73 -6 9 -18 275 -18 387 0 103 11 326 18 361 1 10 6 42 9 72 4 30 8
66 10 80 2 14 8 48 12 75 4 28 8 52 9 55 1 3 5 25 9 50 5 25 10 54 12 65 5 22
31 190 38 245 30 212 26 541 -8 730 -25 136 -31 159 -70 281 -45 141 -166 409
-205 453 -9 10 -15 21 -15 25 4 15 -200 329 -250 385 -14 16 -26 32 -26 36 0
15 -210 219 -280 271 -189 141 -422 245 -614 275 -23 3 -66 10 -96 14 -58 9
-340 5 -400 -5 -128 -21 -284 -61 -356 -91 l-37 -15 49 -23 c165 -77 403 -319
631 -641 67 -95 233 -351 233 -359 0 -3 21 -40 46 -83 68 -115 214 -399 279
-543 31 -69 60 -134 65 -145 22 -46 100 -257 129 -350 61 -189 72 -252 76
-439 3 -150 6 -168 36 -287 30 -123 162 -478 197 -534 4 -5 7 -12 7 -15 4 -19
184 -371 240 -465 14 -25 22 -45 18 -45 -12 1 -129 148 -191 238 -95 141 -215
394 -293 620 -42 122 -126 408 -143 487 -1 6 -5 19 -9 30 -3 11 -8 31 -11 45
-2 14 -16 72 -30 130 -75 306 -194 560 -428 909 -49 74 -94 139 -99 145 -5 6
-55 70 -112 142 -89 114 -140 176 -222 269 -83 96 -213 232 -341 360 -152 151
-178 176 -336 318 l-86 78 -63 -58 c-195 -180 -376 -442 -469 -678 -21 -54
-49 -104 -36 -65 2 8 7 35 10 60 13 116 68 311 140 502 67 176 239 542 334
708 32 57 22 47 -70 -70 -417 -532 -624 -932 -681 -1320 -14 -94 -16 -345 -2
-440 21 -155 109 -492 154 -595 5 -11 29 -72 54 -135 48 -122 96 -235 167
-390 44 -95 493 -990 567 -1130 51 -96 209 -402 356 -692 64 -124 121 -235
126 -245 21 -36 397 -800 450 -913 127 -271 279 -710 317 -918 3 -13 16 -74
29 -136 34 -159 74 -439 92 -656 16 -189 9 -765 -11 -965 -2 -16 -7 -68 -11
-115 -4 -47 -9 -87 -10 -90 -2 -3 -6 -30 -10 -60 -13 -124 -27 -216 -60 -390
-14 -74 -28 -148 -31 -165 -8 -47 -53 -240 -93 -405 -57 -229 -188 -646 -294
-930 -210 -567 -466 -1123 -786 -1707 -65 -120 -115 -209 -131 -233 -5 -8 -19
-33 -31 -55 -110 -203 -534 -868 -713 -1117 -23 -31 -48 -66 -56 -78 -35 -51
-285 -388 -309 -416 -14 -17 -39 -47 -55 -68 -30 -38 -38 -39 -43 -7 -1 11
-12 43 -23 73 -107 287 -527 597 -1245 918 -76 34 -110 49 -210 90 -55 22
-109 45 -120 50 -98 45 -906 333 -965 345 -8 2 -239 75 -285 90 -22 8 -86 28
-142 44 -57 17 -147 44 -200 61 -101 30 -516 149 -543 155 -8 1 -98 26 -200
53 -237 65 -964 253 -1030 267 -8 2 -44 11 -80 20 -36 9 -72 18 -80 20 -8 2
-269 65 -580 140 -311 75 -574 138 -585 140 -95 21 -446 125 -649 192 -77 26
-143 47 -146 48 -3 0 -18 5 -35 12 -16 6 -106 39 -200 73 -810 296 -1725 760
-1961 995 -71 71 -122 187 -139 317 -7 52 -7 237 0 298 6 49 5 53 -7 35 -58
-83 -109 -271 -109 -403 -1 -387 309 -750 961 -1127 135 -78 430 -230 570
-294 41 -19 107 -49 145 -67 77 -35 424 -184 431 -184 2 0 23 -9 47 -19 56
-26 427 -172 662 -261 200 -76 779 -290 985 -365 36 -13 146 -53 245 -90 99
-37 209 -78 245 -91 36 -13 148 -55 250 -94 102 -39 190 -72 195 -74 6 -1 27
-10 49 -19 21 -9 41 -17 44 -17 8 0 131 -48 167 -65 17 -7 95 -39 175 -70 133
-52 470 -192 565 -235 22 -10 81 -36 130 -58 233 -103 659 -314 850 -422 518
-293 864 -663 1068 -1141 51 -120 110 -305 131 -409 3 -14 7 -35 10 -46 15
-68 36 -224 43 -324 14 -170 6 -544 -12 -652 -2 -13 -6 -43 -9 -68 -13 -100
-17 -128 -31 -205 -35 -186 -44 -231 -82 -375 -61 -235 -183 -613 -242 -745
-5 -11 -37 -87 -71 -170 -82 -196 -226 -494 -330 -681 -45 -82 -87 -153 -92
-159 -6 -6 -1371 -10 -3986 -10 -3162 -1 -3976 -3 -3974 -13 1 -7 5 -29 8 -50
3 -20 8 -40 11 -44 2 -5 6 -18 8 -30 7 -35 34 -146 51 -211 8 -32 17 -68 19
-80 3 -12 16 -67 29 -122 14 -55 57 -230 96 -390 108 -446 209 -860 235 -966
13 -53 26 -107 29 -120 2 -13 39 -163 81 -334 41 -170 87 -357 101 -415 13
-58 29 -121 35 -140 5 -19 32 -129 59 -245 28 -115 53 -221 57 -235 3 -14 7
-29 8 -35 2 -5 21 -87 44 -180 l42 -170 516 0 517 0 16 -75 c10 -41 33 -145
53 -230 20 -85 59 -256 87 -380 28 -124 53 -236 56 -250 3 -14 7 -32 9 -40 2
-8 8 -33 13 -55 6 -22 13 -51 16 -65 2 -14 16 -77 31 -140 14 -63 29 -126 31
-140 3 -14 10 -43 16 -65 5 -22 12 -51 14 -65 3 -14 7 -33 10 -42 3 -10 7 -30
10 -45 3 -16 10 -46 16 -68 5 -22 12 -47 13 -55 7 -29 36 -165 40 -180 2 -8 9
-37 15 -65 6 -27 13 -59 16 -70 2 -11 20 -90 39 -175 29 -126 85 -371 100
-440 2 -8 22 -96 45 -195 23 -99 44 -191 46 -205 3 -14 7 -33 10 -42 3 -10 7
-28 9 -40 3 -13 23 -102 45 -198 22 -96 42 -184 44 -195 3 -11 23 -101 46
-200 23 -99 43 -191 46 -205 3 -14 7 -33 10 -42 3 -9 7 -25 9 -35 2 -10 20
-90 40 -178 45 -198 76 -334 80 -358 2 -10 6 -26 9 -35 3 -9 7 -28 10 -42 7
-39 66 -299 81 -360 8 -30 16 -66 18 -80 3 -14 14 -64 26 -112 11 -48 22 -98
25 -110 2 -13 16 -75 31 -138 15 -63 29 -126 31 -139 3 -14 8 -29 11 -34 4 -6
0 -8 -9 -4 -32 12 -582 390 -761 523 -319 236 -400 298 -642 491 -610 486
-1149 973 -1700 1533 -217 221 -222 225 -526 554 -31 34 -69 76 -84 94 -15 18
-42 48 -59 65 -17 18 -51 57 -76 87 -25 29 -52 61 -61 69 -9 9 -69 79 -133
156 -65 77 -138 164 -163 193 -25 29 -84 101 -131 160 -48 59 -92 114 -99 122
-69 83 -243 309 -390 505 -336 449 -603 836 -938 1360 -17 28 -45 70 -61 95
-16 25 -34 54 -40 65 -6 11 -67 112 -135 225 -69 113 -136 225 -150 250 -238
422 -268 479 -416 770 -162 322 -247 501 -400 850 -181 413 -373 915 -524
1373 -56 171 -120 373 -121 384 0 5 -6 24 -14 43 -30 79 -224 794 -249 917 -2
10 -12 56 -24 103 -44 182 -139 632 -171 815 -5 33 -12 71 -15 85 -3 14 -8 41
-11 60 -3 19 -17 100 -30 180 -29 173 -78 507 -99 680 -3 25 -7 61 -10 80 -5
44 -13 109 -20 185 -3 33 -8 76 -10 95 -4 35 -11 104 -20 195 -3 28 -7 83 -10
123 -4 41 -8 93 -11 115 -2 23 -6 81 -9 129 -3 48 -7 109 -10 135 -6 65 -22
415 -30 658 -5 159 -5 844 0 1015 4 157 14 391 20 495 13 213 25 390 30 435 2
19 7 71 10 115 8 100 11 143 20 225 4 36 8 83 10 105 11 105 17 162 20 185 2
14 7 53 10 87 3 34 8 72 10 84 3 12 7 47 10 78 3 31 7 67 10 81 2 14 9 63 15
110 6 47 13 96 15 110 2 14 11 72 20 130 9 58 18 117 20 133 3 15 7 42 10 60
3 17 7 43 10 57 2 14 7 43 10 65 3 22 12 76 21 120 9 44 17 89 19 100 3 27 13
77 42 229 14 71 26 139 29 150 40 225 210 930 309 1286 116 417 291 964 416
1302 33 90 61 168 63 173 2 11 40 109 131 340 67 171 197 485 238 575 14 30
52 116 85 190 203 457 554 1144 781 1528 17 29 31 55 31 58 0 3 8 17 19 32 10
15 57 92 105 172 47 80 92 154 99 165 6 11 34 56 61 100 134 217 390 602 563
845 89 124 255 351 272 372 11 13 84 108 131 169 64 85 322 406 375 466 5 6
28 33 50 60 34 41 310 357 340 389 5 6 51 55 100 109 302 329 841 861 1070
1056 22 19 45 39 50 45 8 9 75 67 275 238 265 226 654 529 980 761 226 161
733 497 878 580 9 6 78 46 152 91 74 44 178 104 230 134 52 29 112 64 132 77
21 12 40 23 43 23 3 0 44 22 92 49 49 26 164 87 257 136 93 48 177 91 185 96
161 91 1030 474 1276 562 22 8 83 31 135 51 268 103 857 300 1080 360 30 8 78
22 105 30 317 93 865 225 1210 292 11 2 43 8 70 14 85 17 99 20 134 26 18 3
43 8 55 10 22 4 42 8 138 24 32 6 70 12 85 15 16 3 48 7 73 11 25 3 52 7 60 9
17 5 39 8 155 25 44 7 87 14 96 15 9 2 40 6 70 10 30 3 65 8 79 10 14 2 49 7
79 10 30 4 61 8 70 10 9 1 48 6 86 10 39 4 77 8 85 10 8 1 47 6 85 9 66 7 99
10 198 21 23 2 74 7 112 10 39 3 88 8 110 10 22 2 81 7 130 10 50 3 113 8 140
10 51 4 194 13 340 20 44 2 188 7 320 11 132 3 241 7 242 8 1 1 15 1 30 0 15
-1 40 -3 55 -3z m9435 -34604 c107 -60 289 -132 436 -172 140 -38 167 -44 245
-60 45 -9 95 -18 110 -21 15 -2 50 -9 77 -14 28 -5 72 -12 98 -15 27 -4 56 -8
65 -10 10 -1 44 -6 77 -9 33 -4 71 -9 85 -11 14 -2 57 -7 95 -10 39 -3 88 -8
110 -10 73 -8 323 -23 535 -30 163 -7 667 -7 875 -1 210 7 539 22 640 31 28 2
97 7 155 10 58 4 116 8 129 10 14 3 66 7 115 11 50 3 96 9 101 12 7 3 7 2 0
-5 -26 -27 -516 -163 -715 -199 -14 -2 -47 -9 -75 -14 -27 -5 -70 -12 -95 -15
-25 -3 -56 -8 -70 -10 -106 -16 -234 -29 -420 -41 -205 -14 -766 -8 -980 11
-25 2 -79 6 -120 10 -163 13 -187 15 -235 21 -27 3 -70 7 -95 9 -41 4 -105 11
-170 20 -14 2 -47 6 -75 10 -27 3 -81 11 -120 16 -38 6 -83 12 -100 14 -27 3
-215 30 -275 40 -14 2 -56 9 -95 15 -38 6 -117 20 -175 30 -58 11 -118 22
-135 24 -84 15 -127 24 -132 30 -3 3 11 79 32 168 21 90 38 169 38 176 0 16
-4 17 64 -21z"/>
<path d="M18668 40975 c-2 -1 -43 -5 -93 -9 -179 -12 -318 -32 -505 -73 -41
-9 -77 -16 -80 -16 -3 0 -15 -3 -28 -8 -13 -5 -36 -11 -53 -14 -135 -24 -775
-239 -934 -315 -11 -5 -94 -41 -185 -81 -141 -60 -632 -298 -710 -343 -14 -8
-70 -39 -125 -69 -159 -87 -172 -95 -318 -181 -76 -44 -156 -92 -179 -105
l-42 -24 90 -24 c149 -40 357 -140 544 -263 41 -27 82 -53 90 -57 8 -4 21 -12
30 -19 8 -7 56 -43 105 -80 210 -156 460 -392 623 -589 46 -55 107 -127 135
-160 57 -67 283 -295 337 -340 327 -277 625 -420 1052 -504 79 -16 170 -32
203 -36 32 -4 68 -9 78 -11 95 -18 384 -25 507 -12 463 49 840 281 1106 680
44 66 145 253 150 278 0 3 4 12 7 20 4 8 13 35 22 59 14 40 14 43 -3 36 -34
-13 -167 -57 -182 -60 -234 -44 -555 -52 -830 -20 -19 2 -62 7 -95 10 -33 3
-71 8 -85 10 -14 2 -45 7 -70 10 -59 8 -99 14 -130 20 -14 3 -41 7 -60 10 -19
3 -102 19 -185 36 -591 119 -1140 319 -1300 472 -143 138 -435 274 -785 366
-47 13 -96 27 -110 31 -34 12 -267 64 -415 94 -119 24 -120 24 -60 26 186 6
315 -6 500 -46 245 -54 583 -181 935 -351 284 -138 334 -160 440 -196 110 -38
264 -78 365 -96 33 -6 69 -13 80 -15 11 -2 43 -7 70 -10 28 -4 61 -8 75 -11
14 -2 52 -7 85 -10 33 -4 74 -8 90 -10 243 -28 830 -23 1160 10 28 3 73 8 100
10 72 8 146 16 175 20 14 2 61 9 106 15 44 6 89 12 100 14 10 2 40 6 65 10
l47 7 -4 82 c-6 127 -18 209 -59 387 -51 219 -218 559 -366 745 -360 449 -678
639 -1159 690 -54 6 -317 14 -322 10z"/>
<path d="M13762 32775 c-108 -109 -347 -255 -594 -363 -62 -27 -140 -59 -173
-72 -33 -12 -69 -26 -80 -30 -103 -41 -400 -124 -520 -145 -73 -13 -85 -15
-112 -20 -16 -3 -46 -7 -68 -10 -89 -11 -122 -16 -175 -25 -30 -5 -71 -12 -90
-15 -19 -3 -55 -10 -80 -15 -25 -5 -56 -12 -70 -14 -62 -10 -235 -58 -345 -96
-380 -132 -673 -343 -996 -720 -373 -436 -521 -837 -475 -1285 16 -154 89
-396 155 -515 4 -8 23 -42 41 -75 50 -92 166 -254 173 -244 2 2 9 33 16 69 19
97 46 172 111 305 56 113 72 142 159 275 39 59 188 268 205 287 6 6 22 26 36
44 14 18 42 54 64 79 21 25 47 56 59 70 70 85 204 228 357 380 195 194 261
254 390 360 30 25 57 47 60 50 13 13 162 121 225 161 80 53 140 85 199 106 40
14 54 18 96 27 81 18 308 156 459 279 175 142 426 381 590 562 65 73 65 65 -2
-45 -102 -167 -285 -368 -478 -527 -99 -81 -117 -95 -209 -162 -30 -22 -60
-44 -65 -48 -36 -28 -244 -164 -370 -243 -218 -136 -323 -218 -476 -370 -192
-190 -337 -369 -509 -625 -74 -111 -250 -400 -250 -411 0 -3 -9 -19 -20 -35
-57 -79 -382 -754 -392 -813 -2 -14 17 -29 87 -67 163 -88 407 -170 575 -194
25 -3 52 -8 60 -10 31 -9 169 -18 275 -18 176 -1 311 12 460 44 50 11 101 22
114 25 73 15 256 82 340 125 126 65 214 131 337 255 305 306 540 792 709 1463
22 87 37 158 90 412 2 9 13 74 25 145 29 180 28 174 36 229 3 28 8 57 9 65 2
9 6 43 10 75 4 33 8 71 11 85 2 14 6 55 9 91 3 36 7 74 9 85 2 11 7 60 11 110
4 49 8 99 10 112 2 12 7 75 10 140 4 64 9 133 11 152 5 55 17 600 13 600 -2 0
-28 -25 -57 -55z"/>
<path d="M8889 30166 c-2 -2 -38 -6 -79 -10 -41 -3 -86 -8 -100 -11 -14 -3
-45 -8 -69 -11 -117 -16 -379 -78 -551 -131 -261 -79 -662 -233 -610 -233 54
0 239 -131 374 -265 119 -117 207 -228 302 -380 185 -297 330 -442 544 -547
314 -152 617 -189 846 -103 60 23 154 70 164 84 3 3 22 18 42 34 57 42 129
121 181 199 26 40 47 75 47 79 0 3 -21 2 -47 -2 -56 -11 -173 -13 -223 -5 -19
3 -51 8 -70 11 -231 33 -540 136 -805 267 -77 38 -149 74 -160 81 -60 36 -117
83 -174 141 -35 37 -89 83 -120 103 -71 47 -239 130 -356 176 -49 19 -108 42
-130 51 l-40 17 40 -6 c108 -14 207 -47 340 -112 110 -54 173 -92 335 -201
161 -108 225 -143 335 -185 84 -32 284 -87 365 -101 19 -3 44 -8 55 -10 59
-11 96 -16 150 -21 33 -4 71 -8 85 -11 47 -7 215 -16 347 -18 108 -2 133 0
138 12 7 18 7 194 0 242 -32 230 -133 444 -289 617 -114 125 -287 210 -486
238 -49 7 -375 16 -381 11z"/>
<path d="M28471 29272 c13 -15 27 -29 31 -32 13 -10 101 -166 136 -240 72
-154 185 -495 183 -555 0 -2 5 -19 10 -37 16 -55 41 -224 54 -358 3 -30 7
-108 10 -174 3 -65 7 -138 10 -162 3 -24 7 -65 10 -91 3 -27 7 -59 10 -73 2
-14 7 -42 10 -63 31 -219 131 -477 259 -669 112 -168 346 -420 501 -540 137
-106 332 -204 470 -237 28 -6 61 -14 75 -18 42 -10 332 -13 375 -4 22 5 54 12
70 15 121 20 268 77 398 154 77 46 92 62 60 62 -47 0 -189 67 -312 147 -160
104 -310 232 -517 443 -114 117 -129 132 -212 230 -26 30 -57 66 -70 80 -13
14 -69 86 -126 160 -214 281 -328 481 -365 640 -23 101 -58 196 -99 270 -36
66 -121 199 -156 246 -17 23 -40 55 -51 70 -48 66 -180 226 -314 378 -67 75
107 -61 210 -166 108 -108 206 -238 321 -425 76 -123 256 -455 288 -531 59
-140 344 -471 565 -658 38 -32 76 -65 84 -72 27 -26 317 -239 406 -298 189
-127 543 -334 570 -334 29 0 147 204 203 350 30 79 70 218 77 270 4 25 11 65
17 90 22 101 13 455 -16 580 -3 14 -10 48 -16 75 -29 143 -107 302 -210 430
-93 116 -327 310 -480 399 -47 27 -338 172 -400 199 -339 147 -931 308 -1445
391 -91 15 -226 36 -265 41 -25 3 -56 8 -70 10 -14 2 -47 7 -75 10 -27 2 -72
7 -100 10 -27 3 -70 7 -94 10 l-44 4 24 -27z"/>
<path d="M9639 28366 c-2 -2 -32 -6 -66 -9 -67 -6 -209 -46 -283 -80 -171 -78
-269 -185 -350 -379 -25 -58 -69 -212 -75 -258 -3 -26 -17 -114 -22 -135 -25
-130 -18 -668 12 -850 2 -16 7 -59 11 -95 3 -36 8 -68 10 -72 4 -6 16 -89 17
-115 1 -20 13 -15 30 10 54 81 209 201 372 288 95 50 154 75 325 134 318 111
489 256 644 547 86 161 119 323 94 458 -5 25 -10 54 -12 65 -6 29 -36 104 -61
149 -29 52 -111 155 -145 183 l-27 22 -2 -47 c-1 -62 -8 -95 -40 -185 -11 -33
-46 -109 -76 -170 -61 -122 -63 -125 -117 -209 -21 -31 -38 -60 -38 -63 0 -3
-5 -11 -10 -18 -6 -7 -33 -42 -59 -79 -122 -170 -247 -298 -335 -343 -94 -49
-214 -179 -351 -380 -58 -86 -59 -87 -45 -50 46 128 126 231 352 457 269 268
339 374 465 708 60 159 139 449 125 461 -10 9 -108 36 -157 43 -57 8 -182 16
-186 12z"/>
<path d="M31576 26145 c-129 -89 -142 -100 -61 -55 86 48 196 130 174 130 -2
0 -53 -34 -113 -75z"/>
<path d="M31756 25580 c24 -37 59 -107 78 -154 36 -88 100 -326 112 -413 3
-27 8 -57 10 -67 4 -21 20 -141 28 -216 28 -238 28 -696 0 -905 -18 -140 -48
-253 -88 -332 -80 -160 -101 -313 -101 -740 0 -161 0 -293 -1 -293 -7 0 -45
190 -51 251 -12 126 -6 383 12 479 2 14 6 43 9 65 9 76 27 181 57 330 32 155
35 173 46 265 12 103 5 398 -12 460 -2 8 -7 40 -10 70 -9 76 -15 112 -29 170
-3 14 -8 36 -11 50 -11 62 -36 167 -45 196 -6 17 -13 42 -15 55 -5 24 -32 121
-43 149 -3 8 -6 20 -8 25 -12 48 -105 313 -129 370 -7 17 -31 76 -55 133 l-43
103 -31 -6 c-46 -10 -213 -78 -275 -112 -150 -84 -334 -239 -446 -376 -134
-164 -250 -389 -282 -547 -45 -227 3 -563 118 -817 10 -24 19 -45 19 -47 0
-12 106 -225 150 -302 27 -48 50 -89 50 -91 0 -8 210 -322 270 -403 68 -92
229 -296 271 -345 201 -231 271 -307 425 -465 l182 -184 1 74 c1 41 3 84 5 95
2 11 7 38 11 60 4 22 9 49 11 60 11 66 76 270 116 365 10 25 23 54 28 65 68
162 184 362 314 543 215 299 332 551 372 802 20 124 24 352 9 487 -3 32 -8 78
-11 103 -37 355 -196 654 -447 839 -150 110 -376 195 -569 214 l-46 5 44 -68z"/>
</g>
</svg>
